REM DIRINDEX 1\2\4\8,1\2\4\9,1\2\4\10,1\2\5\11,1\2\5\12,1\2\5\13,1\2\5\14,1\2\5\15,1\3\6\16,1\3\6\17,1\3\6\18,1\3\7\19,1\3\7\20,1\3\7\21,1\3\7\22,1\3\7\23
REM DIRNAME "folder01","folder02","folder03","folder04","folder05","folder06","folder07","folder08","folder09","folder10","folder11","folder12","folder13","folder14","folder15","folder16","folder17","folder18","folder19","folder20","folder21","folder22","folder23"
TITLE ""
FILE "LR_black_phrase_B06.mp3" MP3
  TRACK 01 AUDIO
    TITLE "0:"
    INDEX 01 00:00:00
  TRACK 02 AUDIO
    TITLE "19:cjc171_13251"
    INDEX 01 00:00:14
  TRACK 03 AUDIO
    TITLE "0:"
    INDEX 01 00:01:37
  TRACK 04 AUDIO
    TITLE "20:cjc171_13252"
    INDEX 01 00:02:03
  TRACK 05 AUDIO
    TITLE "0:"
    INDEX 01 00:04:06
  TRACK 06 AUDIO
    TITLE "21:cjc171_13253"
    INDEX 01 00:05:04
  TRACK 07 AUDIO
    TITLE "0:"
    INDEX 01 00:07:14
  TRACK 08 AUDIO
    TITLE "22:cjc171_13254"
    INDEX 01 00:07:55
  TRACK 09 AUDIO
    TITLE "0:"
    INDEX 01 00:09:70
  TRACK 10 AUDIO
    TITLE "23:cjc171_13255"
    INDEX 01 00:10:24
  TRACK 11 AUDIO
    TITLE "0:"
    INDEX 01 00:12:41
  TRACK 12 AUDIO
    TITLE "19:cjc171_13256"
    INDEX 01 00:13:46
  TRACK 13 AUDIO
    TITLE "0:"
    INDEX 01 00:14:52
  TRACK 14 AUDIO
    TITLE "20:cjc171_13257"
    INDEX 01 00:15:18
  TRACK 15 AUDIO
    TITLE "0:"
    INDEX 01 00:18:02
  TRACK 16 AUDIO
    TITLE "21:cjc171_13258"
    INDEX 01 00:19:02
  TRACK 17 AUDIO
    TITLE "0:"
    INDEX 01 00:21:01
  TRACK 18 AUDIO
    TITLE "22:cjc171_13259"
    INDEX 01 00:21:40
  TRACK 19 AUDIO
    TITLE "0:"
    INDEX 01 00:23:37
  TRACK 20 AUDIO
    TITLE "23:cjc171_13260"
    INDEX 01 00:23:66
  TRACK 21 AUDIO
    TITLE "0:"
    INDEX 01 00:25:65
  TRACK 22 AUDIO
    TITLE "19:cjc171_13261"
    INDEX 01 00:26:70
  TRACK 23 AUDIO
    TITLE "0:"
    INDEX 01 00:28:18
  TRACK 24 AUDIO
    TITLE "20:cjc171_13262"
    INDEX 01 00:28:60
  TRACK 25 AUDIO
    TITLE "0:"
    INDEX 01 00:30:17
  TRACK 26 AUDIO
    TITLE "21:cjc171_13263"
    INDEX 01 00:31:17
  TRACK 27 AUDIO
    TITLE "0:"
    INDEX 01 00:33:41
  TRACK 28 AUDIO
    TITLE "22:cjc171_13264"
    INDEX 01 00:34:07
  TRACK 29 AUDIO
    TITLE "0:"
    INDEX 01 00:36:34
  TRACK 30 AUDIO
    TITLE "23:cjc171_13265"
    INDEX 01 00:36:63
  TRACK 31 AUDIO
    TITLE "0:"
    INDEX 01 00:39:12
  TRACK 32 AUDIO
    TITLE "19:cjc171_13266"
    INDEX 01 00:40:10
  TRACK 33 AUDIO
    TITLE "0:"
    INDEX 01 00:41:27
  TRACK 34 AUDIO
    TITLE "20:cjc171_13267"
    INDEX 01 00:41:62
  TRACK 35 AUDIO
    TITLE "0:"
    INDEX 01 00:43:24
  TRACK 36 AUDIO
    TITLE "21:cjc171_13268"
    INDEX 01 00:44:25
  TRACK 37 AUDIO
    TITLE "0:"
    INDEX 01 00:46:65
  TRACK 38 AUDIO
    TITLE "22:cjc171_13269"
    INDEX 01 00:47:22
  TRACK 39 AUDIO
    TITLE "0:"
    INDEX 01 00:49:66
  TRACK 40 AUDIO
    TITLE "23:cjc171_13270"
    INDEX 01 00:50:10
  TRACK 41 AUDIO
    TITLE "0:"
    INDEX 01 00:52:54
  TRACK 42 AUDIO
    TITLE "19:cjc171_13271"
    INDEX 01 00:53:48
  TRACK 43 AUDIO
    TITLE "0:"
    INDEX 01 00:54:65
  TRACK 44 AUDIO
    TITLE "20:cjc171_13272"
    INDEX 01 00:55:25
  TRACK 45 AUDIO
    TITLE "0:"
    INDEX 01 00:57:61
  TRACK 46 AUDIO
    TITLE "21:cjc171_13273"
    INDEX 01 00:58:61
  TRACK 47 AUDIO
    TITLE "0:"
    INDEX 01 01:00:36
  TRACK 48 AUDIO
    TITLE "22:cjc171_13274"
    INDEX 01 01:00:69
  TRACK 49 AUDIO
    TITLE "0:"
    INDEX 01 01:02:51
  TRACK 50 AUDIO
    TITLE "23:cjc171_13275"
    INDEX 01 01:02:72
  TRACK 51 AUDIO
    TITLE "0:"
    INDEX 01 01:04:51
  TRACK 52 AUDIO
    TITLE "19:cjc171_13276"
    INDEX 01 01:05:45
  TRACK 53 AUDIO
    TITLE "0:"
    INDEX 01 01:06:58
  TRACK 54 AUDIO
    TITLE "20:cjc171_13277"
    INDEX 01 01:07:20
  TRACK 55 AUDIO
    TITLE "0:"
    INDEX 01 01:09:31
  TRACK 56 AUDIO
    TITLE "21:cjc171_13278"
    INDEX 01 01:10:31
  TRACK 57 AUDIO
    TITLE "0:"
    INDEX 01 01:12:25
  TRACK 58 AUDIO
    TITLE "22:cjc171_13279"
    INDEX 01 01:12:61
  TRACK 59 AUDIO
    TITLE "0:"
    INDEX 01 01:14:73
  TRACK 60 AUDIO
    TITLE "23:cjc171_13280"
    INDEX 01 01:15:18
  TRACK 61 AUDIO
    TITLE "0:"
    INDEX 01 01:17:31
  TRACK 62 AUDIO
    TITLE "19:cjc171_13281"
    INDEX 01 01:18:30
  TRACK 63 AUDIO
    TITLE "0:"
    INDEX 01 01:19:39
  TRACK 64 AUDIO
    TITLE "20:cjc171_13282"
    INDEX 01 01:20:05
  TRACK 65 AUDIO
    TITLE "0:"
    INDEX 01 01:22:38
  TRACK 66 AUDIO
    TITLE "21:cjc171_13283"
    INDEX 01 01:23:37
  TRACK 67 AUDIO
    TITLE "0:"
    INDEX 01 01:25:10
  TRACK 68 AUDIO
    TITLE "22:cjc171_13284"
    INDEX 01 01:25:50
  TRACK 69 AUDIO
    TITLE "0:"
    INDEX 01 01:27:52
  TRACK 70 AUDIO
    TITLE "23:cjc171_13285"
    INDEX 01 01:28:07
  TRACK 71 AUDIO
    TITLE "0:"
    INDEX 01 01:30:10
  TRACK 72 AUDIO
    TITLE "19:cjc171_13286"
    INDEX 01 01:31:15
  TRACK 73 AUDIO
    TITLE "0:"
    INDEX 01 01:32:42
  TRACK 74 AUDIO
    TITLE "20:cjc171_13287"
    INDEX 01 01:33:06
  TRACK 75 AUDIO
    TITLE "0:"
    INDEX 01 01:35:38
  TRACK 76 AUDIO
    TITLE "21:cjc171_13288"
    INDEX 01 01:36:38
  TRACK 77 AUDIO
    TITLE "0:"
    INDEX 01 01:38:50
  TRACK 78 AUDIO
    TITLE "22:cjc171_13289"
    INDEX 01 01:39:13
  TRACK 79 AUDIO
    TITLE "0:"
    INDEX 01 01:41:58
  TRACK 80 AUDIO
    TITLE "23:cjc171_13290"
    INDEX 01 01:42:13
  TRACK 81 AUDIO
    TITLE "0:"
    INDEX 01 01:44:59
  TRACK 82 AUDIO
    TITLE "19:cjc171_13291"
    INDEX 01 01:45:62
  TRACK 83 AUDIO
    TITLE "0:"
    INDEX 01 01:47:26
  TRACK 84 AUDIO
    TITLE "20:cjc171_13292"
    INDEX 01 01:47:65
  TRACK 85 AUDIO
    TITLE "0:"
    INDEX 01 01:49:17
  TRACK 86 AUDIO
    TITLE "21:cjc171_13293"
    INDEX 01 01:50:16
  TRACK 87 AUDIO
    TITLE "0:"
    INDEX 01 01:52:58
  TRACK 88 AUDIO
    TITLE "22:cjc171_13294"
    INDEX 01 01:53:22
  TRACK 89 AUDIO
    TITLE "0:"
    INDEX 01 01:56:27
  TRACK 90 AUDIO
    TITLE "23:cjc171_13295"
    INDEX 01 01:56:54
  TRACK 91 AUDIO
    TITLE "0:"
    INDEX 01 01:59:58
  TRACK 92 AUDIO
    TITLE "19:cjc171_13296"
    INDEX 01 02:00:58
  TRACK 93 AUDIO
    TITLE "0:"
    INDEX 01 02:01:59
  TRACK 94 AUDIO
    TITLE "20:cjc171_13297"
    INDEX 01 02:02:21
  TRACK 95 AUDIO
    TITLE "0:"
    INDEX 01 02:04:56
  TRACK 96 AUDIO
    TITLE "21:cjc171_13298"
    INDEX 01 02:05:57
  TRACK 97 AUDIO
    TITLE "0:"
    INDEX 01 02:08:06
  TRACK 98 AUDIO
    TITLE "22:cjc171_13299"
    INDEX 01 02:08:40
  TRACK 99 AUDIO
    TITLE "0:"
    INDEX 01 02:10:48
  TRACK 100 AUDIO
    TITLE "23:cjc171_13300"
    INDEX 01 02:10:70
  TRACK 101 AUDIO
    TITLE "0:"
    INDEX 01 02:13:06
  TRACK 102 AUDIO
    TITLE "19:cjc171_13301"
    INDEX 01 02:13:74
  TRACK 103 AUDIO
    TITLE "0:"
    INDEX 01 02:15:24
  TRACK 104 AUDIO
    TITLE "20:cjc171_13302"
    INDEX 01 02:15:59
  TRACK 105 AUDIO
    TITLE "0:"
    INDEX 01 02:17:64
  TRACK 106 AUDIO
    TITLE "21:cjc171_13303"
    INDEX 01 02:18:62
  TRACK 107 AUDIO
    TITLE "0:"
    INDEX 01 02:21:29
  TRACK 108 AUDIO
    TITLE "22:cjc171_13304"
    INDEX 01 02:21:62
  TRACK 109 AUDIO
    TITLE "0:"
    INDEX 01 02:24:15
  TRACK 110 AUDIO
    TITLE "23:cjc171_13305"
    INDEX 01 02:24:41
  TRACK 111 AUDIO
    TITLE "0:"
    INDEX 01 02:26:65
  TRACK 112 AUDIO
    TITLE "19:cjc171_13306"
    INDEX 01 02:27:64
  TRACK 113 AUDIO
    TITLE "0:"
    INDEX 01 02:28:62
  TRACK 114 AUDIO
    TITLE "20:cjc171_13307"
    INDEX 01 02:29:22
  TRACK 115 AUDIO
    TITLE "0:"
    INDEX 01 02:31:47
  TRACK 116 AUDIO
    TITLE "21:cjc171_13308"
    INDEX 01 02:32:46
  TRACK 117 AUDIO
    TITLE "0:"
    INDEX 01 02:34:72
  TRACK 118 AUDIO
    TITLE "22:cjc171_13309"
    INDEX 01 02:35:35
  TRACK 119 AUDIO
    TITLE "0:"
    INDEX 01 02:37:16
  TRACK 120 AUDIO
    TITLE "23:cjc171_13310"
    INDEX 01 02:37:39
  TRACK 121 AUDIO
    TITLE "0:"
    INDEX 01 02:39:21
  TRACK 122 AUDIO
    TITLE "19:cjc171_13311"
    INDEX 01 02:40:22
  TRACK 123 AUDIO
    TITLE "0:"
    INDEX 01 02:41:43
  TRACK 124 AUDIO
    TITLE "20:cjc171_13312"
    INDEX 01 02:42:09
  TRACK 125 AUDIO
    TITLE "0:"
    INDEX 01 02:44:45
  TRACK 126 AUDIO
    TITLE "21:cjc171_13313"
    INDEX 01 02:45:45
  TRACK 127 AUDIO
    TITLE "0:"
    INDEX 01 02:47:46
  TRACK 128 AUDIO
    TITLE "22:cjc171_13314"
    INDEX 01 02:48:10
  TRACK 129 AUDIO
    TITLE "0:"
    INDEX 01 02:50:05
  TRACK 130 AUDIO
    TITLE "23:cjc171_13315"
    INDEX 01 02:50:34
  TRACK 131 AUDIO
    TITLE "0:"
    INDEX 01 02:52:29
  TRACK 132 AUDIO
    TITLE "19:cjc171_13316"
    INDEX 01 02:53:34
  TRACK 133 AUDIO
    TITLE "0:"
    INDEX 01 02:54:48
  TRACK 134 AUDIO
    TITLE "20:cjc171_13317"
    INDEX 01 02:55:10
  TRACK 135 AUDIO
    TITLE "0:"
    INDEX 01 02:57:09
  TRACK 136 AUDIO
    TITLE "21:cjc171_13318"
    INDEX 01 02:58:08
  TRACK 137 AUDIO
    TITLE "0:"
    INDEX 01 03:00:33
  TRACK 138 AUDIO
    TITLE "22:cjc171_13319"
    INDEX 01 03:00:74
  TRACK 139 AUDIO
    TITLE "0:"
    INDEX 01 03:03:11
  TRACK 140 AUDIO
    TITLE "23:cjc171_13320"
    INDEX 01 03:03:43
  TRACK 141 AUDIO
    TITLE "0:"
    INDEX 01 03:05:57
  TRACK 142 AUDIO
    TITLE "19:cjc171_13321"
    INDEX 01 03:06:63
  TRACK 143 AUDIO
    TITLE "0:"
    INDEX 01 03:08:05
  TRACK 144 AUDIO
    TITLE "20:cjc171_13322"
    INDEX 01 03:08:44
  TRACK 145 AUDIO
    TITLE "0:"
    INDEX 01 03:11:21
  TRACK 146 AUDIO
    TITLE "21:cjc171_13323"
    INDEX 01 03:12:20
  TRACK 147 AUDIO
    TITLE "0:"
    INDEX 01 03:13:47
  TRACK 148 AUDIO
    TITLE "22:cjc171_13324"
    INDEX 01 03:14:11
  TRACK 149 AUDIO
    TITLE "0:"
    INDEX 01 03:16:02
  TRACK 150 AUDIO
    TITLE "23:cjc171_13325"
    INDEX 01 03:16:30
  TRACK 151 AUDIO
    TITLE "0:"
    INDEX 01 03:18:19
  TRACK 152 AUDIO
    TITLE "19:cjc171_13326"
    INDEX 01 03:19:16
  TRACK 153 AUDIO
    TITLE "0:"
    INDEX 01 03:20:43
  TRACK 154 AUDIO
    TITLE "20:cjc171_13327"
    INDEX 01 03:21:07
  TRACK 155 AUDIO
    TITLE "0:"
    INDEX 01 03:23:67
  TRACK 156 AUDIO
    TITLE "21:cjc171_13328"
    INDEX 01 03:24:66
  TRACK 157 AUDIO
    TITLE "0:"
    INDEX 01 03:27:29
  TRACK 158 AUDIO
    TITLE "22:cjc171_13329"
    INDEX 01 03:27:63
  TRACK 159 AUDIO
    TITLE "0:"
    INDEX 01 03:30:06
  TRACK 160 AUDIO
    TITLE "23:cjc171_13330"
    INDEX 01 03:30:32
  TRACK 161 AUDIO
    TITLE "0:"
    INDEX 01 03:32:50
  TRACK 162 AUDIO
    TITLE "19:cjc171_13331"
    INDEX 01 03:33:52
  TRACK 163 AUDIO
    TITLE "0:"
    INDEX 01 03:34:51
  TRACK 164 AUDIO
    TITLE "20:cjc171_13332"
    INDEX 01 03:35:11
  TRACK 165 AUDIO
    TITLE "0:"
    INDEX 01 03:36:26
  TRACK 166 AUDIO
    TITLE "21:cjc171_13333"
    INDEX 01 03:37:20
  TRACK 167 AUDIO
    TITLE "0:"
    INDEX 01 03:39:37
  TRACK 168 AUDIO
    TITLE "22:cjc171_13334"
    INDEX 01 03:40:03
  TRACK 169 AUDIO
    TITLE "0:"
    INDEX 01 03:41:67
  TRACK 170 AUDIO
    TITLE "23:cjc171_13335"
    INDEX 01 03:42:17
  TRACK 171 AUDIO
    TITLE "0:"
    INDEX 01 03:44:08
  TRACK 172 AUDIO
    TITLE "19:cjc171_13336"
    INDEX 01 03:45:02
  TRACK 173 AUDIO
    TITLE "0:"
    INDEX 01 03:46:17
  TRACK 174 AUDIO
    TITLE "20:cjc171_13337"
    INDEX 01 03:46:52
  TRACK 175 AUDIO
    TITLE "0:"
    INDEX 01 03:48:57
  TRACK 176 AUDIO
    TITLE "21:cjc171_13338"
    INDEX 01 03:49:57
  TRACK 177 AUDIO
    TITLE "0:"
    INDEX 01 03:52:24
  TRACK 178 AUDIO
    TITLE "22:cjc171_13339"
    INDEX 01 03:52:57
  TRACK 179 AUDIO
    TITLE "0:"
    INDEX 01 03:55:22
  TRACK 180 AUDIO
    TITLE "23:cjc171_13340"
    INDEX 01 03:55:41
  TRACK 181 AUDIO
    TITLE "0:"
    INDEX 01 03:58:07
  TRACK 182 AUDIO
    TITLE "19:cjc171_13341"
    INDEX 01 03:59:08
  TRACK 183 AUDIO
    TITLE "0:"
    INDEX 01 04:00:21
  TRACK 184 AUDIO
    TITLE "20:cjc171_13342"
    INDEX 01 04:00:60
  TRACK 185 AUDIO
    TITLE "0:"
    INDEX 01 04:02:63
  TRACK 186 AUDIO
    TITLE "21:cjc171_13343"
    INDEX 01 04:03:63
  TRACK 187 AUDIO
    TITLE "0:"
    INDEX 01 04:05:28
  TRACK 188 AUDIO
    TITLE "22:cjc171_13344"
    INDEX 01 04:05:65
  TRACK 189 AUDIO
    TITLE "0:"
    INDEX 01 04:08:01
  TRACK 190 AUDIO
    TITLE "23:cjc171_13345"
    INDEX 01 04:08:30
  TRACK 191 AUDIO
    TITLE "0:"
    INDEX 01 04:10:43
  TRACK 192 AUDIO
    TITLE "19:cjc171_13346"
    INDEX 01 04:11:44
  TRACK 193 AUDIO
    TITLE "0:"
    INDEX 01 04:12:65
  TRACK 194 AUDIO
    TITLE "20:cjc171_13347"
    INDEX 01 04:13:30
  TRACK 195 AUDIO
    TITLE "0:"
    INDEX 01 04:14:33
  TRACK 196 AUDIO
    TITLE "21:cjc171_13348"
    INDEX 01 04:15:32
  TRACK 197 AUDIO
    TITLE "0:"
    INDEX 01 04:16:61
  TRACK 198 AUDIO
    TITLE "22:cjc171_13349"
    INDEX 01 04:17:25
  TRACK 199 AUDIO
    TITLE "0:"
    INDEX 01 04:19:26
  TRACK 200 AUDIO
    TITLE "23:cjc171_13350"
    INDEX 01 04:19:54
  TRACK 201 AUDIO
    TITLE "0:"
    INDEX 01 04:21:57
  TRACK 202 AUDIO
    TITLE "19:cjc171_13351"
    INDEX 01 04:22:60
  TRACK 203 AUDIO
    TITLE "0:"
    INDEX 01 04:23:71
  TRACK 204 AUDIO
    TITLE "20:cjc171_13352"
    INDEX 01 04:24:37
  TRACK 205 AUDIO
    TITLE "0:"
    INDEX 01 04:27:08
  TRACK 206 AUDIO
    TITLE "21:cjc171_13353"
    INDEX 01 04:28:08
  TRACK 207 AUDIO
    TITLE "0:"
    INDEX 01 04:30:34
  TRACK 208 AUDIO
    TITLE "22:cjc171_13354"
    INDEX 01 04:30:75
  TRACK 209 AUDIO
    TITLE "0:"
    INDEX 01 04:32:66
  TRACK 210 AUDIO
    TITLE "23:cjc171_13355"
    INDEX 01 04:33:19
  TRACK 211 AUDIO
    TITLE "0:"
    INDEX 01 04:35:10
  TRACK 212 AUDIO
    TITLE "19:cjc171_13356"
    INDEX 01 04:36:11
  TRACK 213 AUDIO
    TITLE "0:"
    INDEX 01 04:37:44
  TRACK 214 AUDIO
    TITLE "20:cjc171_13357"
    INDEX 01 04:38:02
  TRACK 215 AUDIO
    TITLE "0:"
    INDEX 01 04:39:51
  TRACK 216 AUDIO
    TITLE "21:cjc171_13358"
    INDEX 01 04:40:52
  TRACK 217 AUDIO
    TITLE "0:"
    INDEX 01 04:43:09
  TRACK 218 AUDIO
    TITLE "22:cjc171_13359"
    INDEX 01 04:43:42
  TRACK 219 AUDIO
    TITLE "0:"
    INDEX 01 04:46:25
  TRACK 220 AUDIO
    TITLE "23:cjc171_13360"
    INDEX 01 04:46:51
  TRACK 221 AUDIO
    TITLE "0:"
    INDEX 01 04:49:33
  TRACK 222 AUDIO
    TITLE "19:cjc171_13361"
    INDEX 01 04:50:37
  TRACK 223 AUDIO
    TITLE "0:"
    INDEX 01 04:51:63
  TRACK 224 AUDIO
    TITLE "20:cjc171_13362"
    INDEX 01 04:52:28
  TRACK 225 AUDIO
    TITLE "0:"
    INDEX 01 04:55:06
  TRACK 226 AUDIO
    TITLE "21:cjc171_13363"
    INDEX 01 04:56:04
  TRACK 227 AUDIO
    TITLE "0:"
    INDEX 01 04:58:15
  TRACK 228 AUDIO
    TITLE "22:cjc171_13364"
    INDEX 01 04:58:50
  TRACK 229 AUDIO
    TITLE "0:"
    INDEX 01 05:01:27
  TRACK 230 AUDIO
    TITLE "23:cjc171_13365"
    INDEX 01 05:01:46
  TRACK 231 AUDIO
    TITLE "0:"
    INDEX 01 05:04:23
  TRACK 232 AUDIO
    TITLE "19:cjc171_13366"
    INDEX 01 05:05:19
  TRACK 233 AUDIO
    TITLE "0:"
    INDEX 01 05:06:34
  TRACK 234 AUDIO
    TITLE "20:cjc171_13367"
    INDEX 01 05:06:75
  TRACK 235 AUDIO
    TITLE "0:"
    INDEX 01 05:09:30
  TRACK 236 AUDIO
    TITLE "21:cjc171_13368"
    INDEX 01 05:10:28
  TRACK 237 AUDIO
    TITLE "0:"
    INDEX 01 05:12:50
  TRACK 238 AUDIO
    TITLE "22:cjc171_13369"
    INDEX 01 05:13:14
  TRACK 239 AUDIO
    TITLE "0:"
    INDEX 01 05:15:31
  TRACK 240 AUDIO
    TITLE "23:cjc171_13370"
    INDEX 01 05:15:60
  TRACK 241 AUDIO
    TITLE "0:"
    INDEX 01 05:18:02
  TRACK 242 AUDIO
    TITLE "19:cjc171_13371"
    INDEX 01 05:19:07
  TRACK 243 AUDIO
    TITLE "0:"
    INDEX 01 05:20:22
  TRACK 244 AUDIO
    TITLE "20:cjc171_13372"
    INDEX 01 05:20:61
  TRACK 245 AUDIO
    TITLE "0:"
    INDEX 01 05:22:01
  TRACK 246 AUDIO
    TITLE "21:cjc171_13373"
    INDEX 01 05:22:72
  TRACK 247 AUDIO
    TITLE "0:"
    INDEX 01 05:25:02
  TRACK 248 AUDIO
    TITLE "22:cjc171_13374"
    INDEX 01 05:25:39
  TRACK 249 AUDIO
    TITLE "0:"
    INDEX 01 05:28:04
  TRACK 250 AUDIO
    TITLE "23:cjc171_13375"
    INDEX 01 05:28:35
  TRACK 251 AUDIO
    TITLE "0:"
    INDEX 01 05:30:75
  TRACK 252 AUDIO
    TITLE "19:cjc171_13376"
    INDEX 01 05:32:04
  TRACK 253 AUDIO
    TITLE "0:"
    INDEX 01 05:33:11
  TRACK 254 AUDIO
    TITLE "20:cjc171_13377"
    INDEX 01 05:33:52
  TRACK 255 AUDIO
    TITLE "0:"
    INDEX 01 05:36:15
  TRACK 256 AUDIO
    TITLE "21:cjc171_13378"
    INDEX 01 05:37:11
  TRACK 257 AUDIO
    TITLE "0:"
    INDEX 01 05:39:19
  TRACK 258 AUDIO
    TITLE "22:cjc171_13379"
    INDEX 01 05:39:59
  TRACK 259 AUDIO
    TITLE "0:"
    INDEX 01 05:41:48
  TRACK 260 AUDIO
    TITLE "23:cjc171_13380"
    INDEX 01 05:42:02
  TRACK 261 AUDIO
    TITLE "0:"
    INDEX 01 05:43:68
  TRACK 262 AUDIO
    TITLE "19:cjc171_13381"
    INDEX 01 05:44:72
  TRACK 263 AUDIO
    TITLE "0:"
    INDEX 01 05:46:21
  TRACK 264 AUDIO
    TITLE "20:cjc171_13382"
    INDEX 01 05:46:59
  TRACK 265 AUDIO
    TITLE "0:"
    INDEX 01 05:48:16
  TRACK 266 AUDIO
    TITLE "21:cjc171_13383"
    INDEX 01 05:49:18
  TRACK 267 AUDIO
    TITLE "0:"
    INDEX 01 05:50:74
  TRACK 268 AUDIO
    TITLE "22:cjc171_13384"
    INDEX 01 05:51:40
  TRACK 269 AUDIO
    TITLE "0:"
    INDEX 01 05:54:27
  TRACK 270 AUDIO
    TITLE "23:cjc171_13385"
    INDEX 01 05:54:56
  TRACK 271 AUDIO
    TITLE "0:"
    INDEX 01 05:57:43
  TRACK 272 AUDIO
    TITLE "19:cjc171_13386"
    INDEX 01 05:58:42
  TRACK 273 AUDIO
    TITLE "0:"
    INDEX 01 05:59:53
  TRACK 274 AUDIO
    TITLE "20:cjc171_13387"
    INDEX 01 06:00:18
  TRACK 275 AUDIO
    TITLE "0:"
    INDEX 01 06:01:29
  TRACK 276 AUDIO
    TITLE "21:cjc171_13388"
    INDEX 01 06:02:28
  TRACK 277 AUDIO
    TITLE "0:"
    INDEX 01 06:04:29
  TRACK 278 AUDIO
    TITLE "22:cjc171_13389"
    INDEX 01 06:04:62
  TRACK 279 AUDIO
    TITLE "0:"
    INDEX 01 06:07:35
  TRACK 280 AUDIO
    TITLE "23:cjc171_13390"
    INDEX 01 06:07:61
  TRACK 281 AUDIO
    TITLE "0:"
    INDEX 01 06:10:32
  TRACK 282 AUDIO
    TITLE "19:cjc171_13391"
    INDEX 01 06:11:33
  TRACK 283 AUDIO
    TITLE "0:"
    INDEX 01 06:12:37
  TRACK 284 AUDIO
    TITLE "20:cjc171_13392"
    INDEX 01 06:12:74
  TRACK 285 AUDIO
    TITLE "0:"
    INDEX 01 06:15:05
  TRACK 286 AUDIO
    TITLE "21:cjc171_13393"
    INDEX 01 06:16:07
  TRACK 287 AUDIO
    TITLE "0:"
    INDEX 01 06:17:73
  TRACK 288 AUDIO
    TITLE "22:cjc171_13394"
    INDEX 01 06:18:33
  TRACK 289 AUDIO
    TITLE "0:"
    INDEX 01 06:20:14
  TRACK 290 AUDIO
    TITLE "23:cjc171_13395"
    INDEX 01 06:20:44
  TRACK 291 AUDIO
    TITLE "0:"
    INDEX 01 06:22:25
  TRACK 292 AUDIO
    TITLE "19:cjc171_13396"
    INDEX 01 06:23:27
  TRACK 293 AUDIO
    TITLE "0:"
    INDEX 01 06:24:42
  TRACK 294 AUDIO
    TITLE "20:cjc171_13397"
    INDEX 01 06:25:02
  TRACK 295 AUDIO
    TITLE "0:"
    INDEX 01 06:27:05
  TRACK 296 AUDIO
    TITLE "21:cjc171_13398"
    INDEX 01 06:27:75
  TRACK 297 AUDIO
    TITLE "0:"
    INDEX 01 06:29:74
  TRACK 298 AUDIO
    TITLE "22:cjc171_13399"
    INDEX 01 06:30:34
  TRACK 299 AUDIO
    TITLE "0:"
    INDEX 01 06:32:59
  TRACK 300 AUDIO
    TITLE "23:cjc171_13400"
    INDEX 01 06:33:05
  TRACK 301 AUDIO
    TITLE "0:"
    INDEX 01 06:35:30
